<?xml version="1.0" encoding="UTF-8"?>
<!DOCTYPE svg PUBLIC "-//W3C//DTD SVG 1.1//EN" "http://www.w3.org/Graphics/SVG/1.1/DTD/svg11.dtd">
<svg version="1.1" xmlns="http://www.w3.org/2000/svg" xmlns:xlink="http://www.w3.org/1999/xlink" x="0" y="0" width="549" height="142" viewBox="0, 0, 549, 142">
  <g id="Layer_1">
    <path d="M395.948,64.28 C322.202,40.71 259.233,68.86 223.181,47.71 C240.851,17.525 361.544,52.691 399.696,20.224 C350.259,35.038 273.688,-0.319 234.068,3.625 C191.027,7.909 178.205,31.468 178.205,31.468 L200.47,31.033 L200.208,30.683 C200.208,30.683 200.589,30.414 201.3,29.908 C202.025,29.402 203.019,28.658 204.468,27.714 C205.876,26.75 207.61,25.664 209.636,24.468 C211.693,23.308 214.031,22.017 216.736,20.874 C218.06,20.257 219.517,19.759 220.998,19.205 C222.515,18.74 224.071,18.214 225.724,17.866 C229.005,17.099 232.546,16.582 236.193,16.546 C239.841,16.484 243.579,16.79 247.302,17.369 C251.048,18.027 254.624,18.822 258.284,19.505 C272.905,22.284 287.644,24.636 298.712,26.187 C304.251,26.956 308.876,27.507 312.124,27.783 C313.747,27.943 315.028,27.983 315.899,28.009 C316.772,27.996 317.239,27.988 317.239,27.988 C317.239,27.988 316.774,28.021 315.899,28.082 C315.028,28.101 313.739,28.13 312.108,28.058 C308.841,27.956 304.181,27.657 298.601,27.185 C287.438,26.23 272.591,24.673 257.763,22.675 C254.058,22.188 250.31,21.57 246.794,21.147 C243.235,20.789 239.736,20.697 236.398,20.935 C233.052,21.146 229.89,21.791 226.978,22.64 C225.509,23.028 224.134,23.585 222.792,24.071 C221.479,24.651 220.197,25.16 219.017,25.791 C216.625,26.956 214.531,28.265 212.69,29.44 C210.865,30.653 209.294,31.757 208.058,32.705 C207.503,33.109 207.001,33.495 206.548,33.853 C208.319,39.657 212.063,53.375 212.921,68.181 C213.593,68.529 214.347,68.933 215.332,69.288 C215.843,69.491 216.382,69.706 216.947,69.933 C217.535,70.114 218.149,70.302 218.792,70.499 C220.054,70.945 221.523,71.188 223.044,71.573 C226.154,72.149 229.732,72.619 233.702,72.853 C237.675,73.066 242.011,73.123 246.622,73.035 C251.231,72.927 256.106,72.717 261.157,72.444 C271.261,71.886 282.067,71.154 292.896,70.71 C298.306,70.476 303.726,70.327 309.062,70.259 C311.728,70.243 314.374,70.203 316.987,70.239 C319.603,70.246 322.185,70.283 324.724,70.361 C329.802,70.476 334.71,70.712 339.354,71.019 C341.679,71.144 343.933,71.353 346.114,71.534 C348.298,71.699 350.401,71.915 352.421,72.138 C356.464,72.53 360.149,73.062 363.417,73.477 C366.677,73.984 369.517,74.425 371.854,74.79 C376.511,75.636 379.171,76.121 379.171,76.121 C379.171,76.121 376.499,75.718 371.819,75.016 C369.474,74.726 366.624,74.372 363.356,73.967 C360.077,73.654 356.388,73.237 352.345,72.972 C350.327,72.811 348.226,72.661 346.044,72.564 C343.862,72.451 341.612,72.313 339.292,72.259 C334.657,72.097 329.765,72.013 324.708,72.054 C322.179,72.056 319.608,72.097 317.007,72.172 C314.405,72.215 311.772,72.337 309.12,72.438 C303.815,72.668 298.429,72.985 293.048,73.382 C282.28,74.158 271.532,75.222 261.413,76.096 C256.351,76.527 251.443,76.891 246.767,77.145 C242.089,77.378 237.638,77.46 233.505,77.366 C229.371,77.251 225.552,76.876 222.167,76.353 C220.481,75.989 218.886,75.768 217.438,75.317 C216.71,75.117 216.013,74.924 215.345,74.74 C214.69,74.501 214.062,74.276 213.468,74.061 C213.341,74.009 213.22,73.971 213.097,73.925 C213.125,84.896 211.267,95.974 205.609,104.466 L205.452,104.461 C205.585,104.747 205.757,105.075 205.914,105.41 C206.525,106.425 207.332,107.676 208.541,108.987 C209.744,110.285 211.204,111.718 213.011,113.081 C214.806,114.442 216.843,115.848 219.158,117.103 C221.464,118.354 223.968,119.596 226.677,120.614 C229.378,121.644 232.23,122.597 235.204,123.3 C236.677,123.707 238.203,123.958 239.718,124.289 C241.249,124.515 242.78,124.83 244.332,124.977 L246.657,125.242 L248.989,125.407 C250.542,125.545 252.093,125.538 253.634,125.583 C255.177,125.611 256.704,125.531 258.218,125.513 C259.726,125.406 261.222,125.328 262.688,125.195 C264.151,125.017 265.595,124.888 266.999,124.68 C268.401,124.449 269.776,124.253 271.11,124.006 C272.435,123.733 273.726,123.465 274.974,123.207 C276.212,122.895 277.407,122.593 278.556,122.304 C279.71,122.035 280.784,121.667 281.823,121.365 C282.853,121.04 283.849,120.784 284.753,120.449 C286.565,119.796 288.173,119.282 289.456,118.762 C292.028,117.729 293.501,117.138 293.501,117.138 C293.501,117.138 292.063,117.806 289.544,118.975 C288.286,119.562 286.708,120.163 284.923,120.913 C284.03,121.296 283.048,121.607 282.03,121.988 C281.005,122.347 279.94,122.775 278.792,123.107 C277.651,123.459 276.462,123.827 275.231,124.207 C273.985,124.535 272.694,124.873 271.368,125.221 C270.036,125.541 268.653,125.814 267.245,126.123 C265.831,126.409 264.372,126.618 262.894,126.876 C261.409,127.09 259.89,127.251 258.354,127.441 C256.813,127.543 255.253,127.706 253.675,127.761 C252.093,127.798 250.5,127.889 248.897,127.831 L246.49,127.788 L244.079,127.642 C242.466,127.573 240.868,127.334 239.265,127.182 C237.677,126.925 236.081,126.745 234.524,126.404 C231.386,125.832 228.347,124.996 225.443,124.06 C222.531,123.136 219.802,121.963 217.257,120.749 C214.708,119.534 212.408,118.13 210.343,116.727 C208.271,115.328 206.511,113.793 205.019,112.335 C203.524,110.873 202.386,109.355 201.511,108.031 C201.108,107.308 200.751,106.741 200.462,106.078 C200.326,105.737 200.2,105.422 200.083,105.133 C199.976,104.852 199.853,104.546 199.825,104.397 L199.802,104.306 L173.208,103.573 C193.776,108.527 202.136,147.658 261.017,138.02 C303.362,131.088 318.19,105.069 350.972,115.71 C342.403,95.364 299.929,109.568 277.438,109.285 C254.95,109.002 244.955,98.577 244.955,98.577 C244.955,98.577 291.05,76.315 399.519,91.616 C499.468,105.714 539.802,69.953 546.585,56.455 C546.585,56.455 499.823,97.478 395.948,64.28" fill="#E0552D"/>
    <path d="M204.609,77.46 L199.531,77.351 C199.884,75.062 200.056,72.806 200.048,70.488 L205.067,70.488 C205.107,72.813 204.954,75.154 204.609,77.46 M199.273,59.579 L204.988,59.579 L205.036,60.65 L199.384,60.65 L199.273,59.579 z M196.995,45.054 L202.56,45.054 L203.261,48.267 L197.698,48.267 L196.995,45.054 z M188.154,61.185 L187.83,59.043 L194.491,59.043 L194.847,61.185 L188.154,61.185 z M194.524,76.121 L187.832,76.121 L188.343,73.979 L194.845,73.979 L194.524,76.121 z M186.023,44.519 L192.683,44.519 L193.621,48.802 L186.96,48.802 L186.023,44.519 z M184.683,76.781 L182.519,66.718 L179.994,78.459 L177.468,66.718 L174.945,78.459 L172.419,66.718 L169.895,78.459 L167.37,66.718 L164.845,78.458 L162.32,66.718 L159.796,78.459 L157.27,66.718 L154.745,78.459 L152.22,66.718 L149.696,78.459 L147.171,66.718 L144.645,78.459 L142.12,66.718 L139.595,78.459 L137.07,66.718 L134.544,78.459 L132.02,66.718 L129.496,78.458 L126.97,66.718 L124.446,78.458 L121.919,66.718 L119.395,78.457 L116.871,66.718 L114.345,78.46 L111.82,66.718 L109.296,78.458 L106.771,66.718 L104.248,78.459 L101.72,66.718 L99.195,78.459 L96.671,66.718 L94.146,78.459 L91.621,66.718 L89.095,78.459 L86.571,66.718 L84.046,78.459 L81.521,66.718 L78.996,78.459 L76.47,66.718 L74.33,76.674 L74.33,66.572 L184.907,66.572 C184.966,70.043 184.89,73.488 184.683,76.781 M75.044,84.877 L179.811,84.877 L179.811,87.019 L75.044,87.019 z M74.33,58.775 L184.544,58.775 C184.632,59.941 184.707,61.111 184.763,62.289 L74.33,62.289 L74.33,58.775 z M74.33,41.462 L181.791,41.462 C182.515,44.127 183.115,47.081 183.587,50.208 L74.33,50.208 L74.33,41.462 z M67.411,87.102 C66.958,87.176 66.298,87.251 65.462,87.331 C63.786,87.482 61.402,87.585 58.558,87.529 C52.873,87.422 45.339,86.685 37.941,85.228 C30.546,83.799 23.263,81.63 18.212,79.063 C16.945,78.439 15.833,77.765 14.873,77.14 C14.408,76.803 13.972,76.489 13.57,76.197 C13.193,75.874 12.845,75.578 12.534,75.31 C11.954,74.721 11.498,74.264 11.249,73.9 C10.979,73.551 10.835,73.367 10.835,73.367 C10.835,73.367 10.986,73.545 11.267,73.883 C11.53,74.241 12.003,74.68 12.595,75.242 C12.915,75.497 13.27,75.779 13.655,76.085 C14.064,76.36 14.505,76.658 14.979,76.975 C15.957,77.56 17.079,78.188 18.358,78.762 C23.452,81.127 30.749,83.02 38.128,84.172 C45.507,85.357 52.992,85.817 58.561,85.721 C61.347,85.676 63.652,85.493 65.241,85.293 C66.034,85.187 66.654,85.096 67.068,85.011 C67.485,84.936 67.708,84.897 67.708,84.897 L68.102,87.001 C68.102,87.001 67.861,87.037 67.411,87.102 M11.398,63.045 C11.517,62.873 11.643,62.691 11.775,62.499 C11.927,62.322 12.087,62.137 12.253,61.943 C12.589,61.556 12.954,61.134 13.341,60.685 C13.539,60.458 13.742,60.224 13.951,59.984 C14.171,59.757 14.412,59.543 14.652,59.312 C15.138,58.853 15.651,58.37 16.185,57.867 C16.714,57.351 17.347,56.924 17.964,56.42 C18.593,55.941 19.222,55.394 19.942,54.956 C20.651,54.49 21.378,54.01 22.123,53.523 C22.88,53.06 23.684,52.64 24.492,52.183 C25.294,51.71 26.138,51.3 27.003,50.902 C27.869,50.51 28.73,50.046 29.634,49.699 C30.537,49.335 31.446,48.968 32.36,48.599 C33.279,48.243 34.216,47.947 35.151,47.618 C36.085,47.281 37.027,46.984 37.972,46.72 C38.917,46.449 39.857,46.154 40.796,45.906 C42.679,45.447 44.539,44.945 46.352,44.597 C48.163,44.195 49.921,43.878 51.593,43.599 C53.265,43.286 54.851,43.101 56.317,42.88 C57.784,42.654 59.128,42.542 60.323,42.392 C61.518,42.246 62.56,42.156 63.419,42.081 C65.136,41.929 66.12,41.842 66.12,41.842 L66.12,51.48 C66.12,51.48 65.188,51.416 63.556,51.304 C62.74,51.246 61.748,51.174 60.611,51.135 C59.476,51.099 58.186,51.002 56.789,50.999 C55.39,50.988 53.865,50.924 52.265,50.972 C50.661,50.984 48.966,51.021 47.224,51.127 C45.468,51.183 43.681,51.377 41.845,51.527 C40.931,51.62 40.021,51.755 39.097,51.869 C38.171,51.974 37.251,52.111 36.337,52.288 C35.425,52.457 34.496,52.593 33.589,52.79 C32.686,52.998 31.786,53.206 30.892,53.413 C29.989,53.603 29.138,53.906 28.269,54.144 C27.4,54.387 26.546,54.646 25.737,54.966 C24.921,55.273 24.099,55.548 23.32,55.868 C22.55,56.214 21.8,56.554 21.069,56.885 C20.318,57.193 19.661,57.609 18.992,57.969 C18.339,58.351 17.663,58.665 17.089,59.07 C16.505,59.468 15.948,59.851 15.417,60.213 C15.152,60.398 14.882,60.57 14.638,60.752 C14.408,60.947 14.181,61.136 13.964,61.32 C13.524,61.691 13.111,62.039 12.73,62.359 C12.538,62.521 12.353,62.677 12.177,62.826 C12.017,62.995 11.865,63.154 11.72,63.306 C10.56,64.523 9.899,65.218 9.899,65.218 C9.899,65.218 10.444,64.428 11.398,63.045 M201.255,34.603 C201.082,34.215 200.698,33.966 200.276,33.966 L190.013,33.966 C189.652,33.966 189.314,34.15 189.116,34.455 C188.919,34.758 188.888,35.142 189.036,35.474 C189.436,36.373 189.812,37.351 190.166,38.385 C188.513,39.892 185.319,39.875 183.265,38.877 C182.782,37.338 182.257,35.898 181.681,34.603 C181.507,34.215 181.125,33.966 180.702,33.966 L73.259,33.966 C72.667,33.966 72.188,34.447 72.188,35.039 L72.188,35.351 C37.134,35.363 13.815,43.042 2.873,58.174 L2.671,58.456 L2.671,74.139 L2.873,74.421 C16.64,93.461 48.146,97.476 72.188,97.487 L72.188,98.577 C72.188,99.168 72.667,99.647 73.259,99.647 L180.702,99.647 C181.058,99.647 181.392,99.469 181.589,99.173 C181.908,98.703 182.207,98.163 182.498,97.594 L182.519,97.594 L182.519,97.548 C182.995,96.612 183.431,95.555 183.833,94.387 C185.916,93.414 188.987,93.671 190.541,95.256 C190.106,96.292 189.636,97.218 189.126,97.979 C188.905,98.307 188.882,98.73 189.069,99.08 C189.255,99.428 189.62,99.647 190.013,99.647 L200.276,99.647 C200.632,99.647 200.966,99.469 201.166,99.173 C204.649,93.993 206.476,82.752 206.648,70.648 C206.505,70.562 206.408,70.502 206.408,70.502 L206.655,70.109 C206.789,57.017 204.994,43.007 201.255,34.603" fill="#0A0B09"/>
    <path d="M12.177,62.826 C12.353,62.677 12.537,62.521 12.73,62.36 C13.111,62.038 13.525,61.691 13.964,61.321 C14.182,61.136 14.408,60.947 14.639,60.751 C14.883,60.57 15.152,60.398 15.415,60.214 C15.949,59.851 16.506,59.468 17.089,59.071 C17.662,58.665 18.34,58.351 18.992,57.97 C19.66,57.61 20.318,57.193 21.07,56.886 C21.8,56.554 22.551,56.214 23.32,55.868 C24.099,55.548 24.92,55.273 25.738,54.966 C26.546,54.646 27.4,54.388 28.269,54.144 C29.139,53.907 29.99,53.603 30.892,53.412 C31.785,53.206 32.686,52.998 33.59,52.79 C34.496,52.593 35.425,52.456 36.338,52.288 C37.251,52.112 38.172,51.974 39.098,51.869 C40.021,51.755 40.932,51.62 41.845,51.528 C43.682,51.377 45.468,51.183 47.224,51.126 C48.967,51.019 50.66,50.985 52.266,50.972 C53.865,50.925 55.391,50.989 56.789,50.998 C58.186,51.002 59.476,51.099 60.611,51.136 C61.746,51.175 62.74,51.246 63.557,51.304 C65.189,51.415 66.119,51.48 66.119,51.48 L66.119,41.843 C66.119,41.843 65.137,41.929 63.418,42.081 C62.56,42.156 61.518,42.245 60.324,42.392 C59.127,42.541 57.783,42.655 56.318,42.88 C54.851,43.101 53.266,43.286 51.593,43.599 C49.92,43.878 48.162,44.196 46.352,44.597 C44.539,44.945 42.68,45.447 40.797,45.907 C39.857,46.155 38.915,46.449 37.972,46.72 C37.027,46.984 36.085,47.281 35.152,47.618 C34.217,47.948 33.279,48.243 32.361,48.599 C31.447,48.968 30.537,49.334 29.634,49.7 C28.73,50.046 27.869,50.511 27.003,50.903 C26.139,51.3 25.294,51.71 24.492,52.181 C23.684,52.64 22.881,53.06 22.121,53.521 C21.378,54.011 20.652,54.49 19.943,54.955 C19.223,55.394 18.594,55.941 17.964,56.42 C17.348,56.925 16.715,57.351 16.185,57.867 C15.652,58.37 15.139,58.853 14.652,59.312 C14.412,59.542 14.171,59.757 13.951,59.985 C13.742,60.224 13.539,60.458 13.342,60.685 C12.953,61.134 12.589,61.554 12.253,61.944 C12.086,62.138 11.927,62.323 11.775,62.499 C11.643,62.691 11.517,62.872 11.398,63.045 C10.445,64.429 9.9,65.218 9.9,65.218 C9.9,65.218 10.56,64.523 11.72,63.306 C11.865,63.154 12.017,62.994 12.177,62.826" fill="#FFFFFE"/>
    <path d="M173.564,84.878 L75.042,84.878 L75.042,87.02 L179.811,87.02 L179.811,84.878 L173.564,84.878" fill="#FFFFFE"/>
    <path d="M67.068,85.012 C66.654,85.097 66.034,85.188 65.241,85.292 C63.652,85.493 61.347,85.676 58.561,85.722 C52.992,85.817 45.507,85.357 38.128,84.172 C30.749,83.021 23.452,81.126 18.358,78.762 C17.079,78.188 15.957,77.561 14.979,76.975 C14.505,76.658 14.064,76.36 13.655,76.084 C13.27,75.779 12.915,75.496 12.595,75.241 C12.003,74.681 11.53,74.241 11.267,73.883 C10.986,73.545 10.835,73.366 10.835,73.366 C10.835,73.366 10.979,73.551 11.249,73.9 C11.498,74.264 11.954,74.721 12.534,75.31 C12.845,75.578 13.193,75.873 13.57,76.197 C13.972,76.489 14.408,76.804 14.873,77.14 C15.833,77.766 16.945,78.439 18.214,79.064 C23.263,81.63 30.546,83.799 37.941,85.228 C45.339,86.685 52.873,87.422 58.558,87.529 C61.402,87.585 63.786,87.482 65.462,87.331 C66.298,87.25 66.958,87.176 67.411,87.102 C67.861,87.037 68.102,87 68.102,87 L67.708,84.897 C67.708,84.897 67.485,84.937 67.068,85.012" fill="#FFFFFE"/>
    <path d="M193.621,48.802 L192.683,44.519 L186.023,44.519 L186.959,48.802 L193.621,48.802" fill="#FFFFFE"/>
    <path d="M203.262,48.267 L202.56,45.054 L196.994,45.054 L197.699,48.267 L203.262,48.267" fill="#FFFFFE"/>
    <path d="M194.847,61.185 L194.492,59.042 L187.83,59.042 L188.154,61.185 L194.847,61.185" fill="#FFFFFE"/>
    <path d="M194.846,73.979 L188.344,73.979 L187.83,76.121 L194.524,76.121 L194.846,73.979" fill="#FFFFFE"/>
    <path d="M205.036,60.65 L204.988,59.579 L199.273,59.579 L199.386,60.65 L205.036,60.65" fill="#FFFFFE"/>
    <path d="M204.609,77.46 C204.954,75.154 205.107,72.813 205.067,70.488 L200.048,70.488 C200.056,72.806 199.884,75.062 199.531,77.351 L204.609,77.46" fill="#FFFFFE"/>
    <path d="M212.69,29.439 C214.531,28.267 216.625,26.956 219.017,25.791 C220.197,25.16 221.479,24.65 222.792,24.07 C224.132,23.585 225.509,23.027 226.978,22.64 C229.891,21.792 233.052,21.146 236.398,20.935 C239.736,20.697 243.235,20.79 246.794,21.146 C250.311,21.57 254.06,22.187 257.763,22.676 C272.589,24.673 287.438,26.23 298.601,27.185 C304.181,27.656 308.841,27.956 312.108,28.06 C313.739,28.129 315.028,28.103 315.899,28.082 C316.774,28.021 317.239,27.988 317.239,27.988 C317.239,27.988 316.772,27.996 315.899,28.01 C315.028,27.982 313.747,27.943 312.124,27.783 C308.876,27.506 304.251,26.957 298.71,26.187 C287.644,24.636 272.905,22.283 258.284,19.505 C254.624,18.822 251.046,18.027 247.3,17.369 C243.58,16.79 239.839,16.484 236.193,16.546 C232.544,16.583 229.003,17.101 225.725,17.867 C224.071,18.214 222.516,18.74 220.998,19.205 C219.517,19.759 218.061,20.256 216.736,20.874 C214.031,22.017 211.693,23.31 209.636,24.469 C207.61,25.664 205.876,26.75 204.466,27.714 C203.02,28.658 202.025,29.402 201.3,29.908 C200.587,30.415 200.208,30.685 200.208,30.685 L200.47,31.033 L204.067,35.822 C204.067,35.822 204.431,35.531 205.115,34.988 C205.494,34.693 205.983,34.296 206.546,33.853 C207.001,33.496 207.503,33.109 208.058,32.706 C209.294,31.757 210.865,30.652 212.69,29.439" fill="#FFFFFE"/>
    <path d="M215.346,74.741 C216.014,74.924 216.71,75.117 217.438,75.316 C218.887,75.768 220.481,75.989 222.167,76.352 C225.553,76.876 229.371,77.252 233.505,77.367 C237.638,77.46 242.089,77.379 246.768,77.144 C251.443,76.891 256.351,76.526 261.411,76.095 C271.532,75.222 282.28,74.158 293.048,73.383 C298.429,72.984 303.815,72.668 309.118,72.437 C311.772,72.338 314.405,72.216 317.007,72.173 C319.608,72.097 322.179,72.056 324.708,72.054 C329.765,72.012 334.657,72.096 339.292,72.26 C341.612,72.313 343.862,72.452 346.044,72.564 C348.226,72.662 350.325,72.81 352.345,72.971 C356.388,73.236 360.077,73.654 363.356,73.967 C366.624,74.373 369.474,74.725 371.819,75.016 C376.499,75.719 379.171,76.121 379.171,76.121 C379.171,76.121 376.511,75.636 371.854,74.79 C369.517,74.425 366.677,73.984 363.417,73.477 C360.149,73.061 356.464,72.529 352.421,72.138 C350.401,71.914 348.298,71.699 346.114,71.533 C343.933,71.354 341.679,71.145 339.354,71.019 C334.71,70.712 329.802,70.476 324.724,70.361 C322.185,70.283 319.603,70.246 316.987,70.24 C314.374,70.203 311.728,70.244 309.062,70.26 C303.726,70.328 298.306,70.476 292.896,70.71 C282.067,71.154 271.263,71.887 261.157,72.444 C256.106,72.718 251.231,72.928 246.621,73.035 C242.012,73.123 237.674,73.066 233.701,72.852 C229.732,72.62 226.154,72.149 223.042,71.574 C221.523,71.187 220.055,70.945 218.791,70.499 C218.149,70.303 217.535,70.115 216.947,69.932 C216.382,69.706 215.842,69.492 215.332,69.287 C214.347,68.933 213.592,68.529 212.919,68.181 L212.766,68.1 C212.408,67.922 212.078,67.755 211.774,67.604 C211.449,67.391 211.151,67.199 210.885,67.027 C209.824,66.336 209.256,65.968 209.256,65.968 L206.656,70.109 L206.408,70.503 C206.408,70.503 206.505,70.562 206.648,70.65 C206.908,70.806 207.371,71.086 208.068,71.509 C208.34,71.674 208.641,71.857 208.976,72.058 C209.371,72.251 209.802,72.46 210.268,72.687 C210.738,72.911 211.242,73.149 211.776,73.405 C212.201,73.614 212.642,73.761 213.098,73.925 C213.221,73.97 213.34,74.01 213.468,74.06 C214.062,74.276 214.69,74.502 215.346,74.741" fill="#FFFFFE"/>
    <path d="M200.083,105.133 C200.2,105.422 200.326,105.737 200.462,106.078 C200.75,106.741 201.107,107.308 201.511,108.031 C202.388,109.355 203.523,110.873 205.019,112.335 C206.513,113.793 208.271,115.328 210.343,116.727 C212.408,118.13 214.708,119.534 217.256,120.749 C219.802,121.963 222.531,123.136 225.443,124.06 C228.349,124.996 231.386,125.832 234.523,126.404 C236.081,126.745 237.679,126.925 239.265,127.182 C240.868,127.334 242.465,127.573 244.079,127.642 L246.49,127.788 L248.896,127.831 C250.5,127.889 252.093,127.798 253.674,127.761 C255.253,127.706 256.813,127.543 258.354,127.441 C259.89,127.251 261.409,127.09 262.894,126.876 C264.372,126.618 265.831,126.409 267.245,126.123 C268.653,125.814 270.036,125.541 271.368,125.221 C272.694,124.873 273.983,124.535 275.231,124.207 C276.462,123.827 277.651,123.459 278.792,123.107 C279.94,122.775 281.005,122.347 282.03,121.988 C283.048,121.607 284.03,121.296 284.923,120.913 C286.708,120.163 288.286,119.562 289.544,118.975 C292.063,117.806 293.501,117.138 293.501,117.138 C293.501,117.138 292.028,117.729 289.456,118.762 C288.173,119.282 286.565,119.796 284.753,120.449 C283.849,120.784 282.854,121.04 281.823,121.365 C280.784,121.667 279.71,122.035 278.556,122.304 C277.407,122.593 276.212,122.895 274.976,123.207 C273.726,123.465 272.435,123.733 271.108,124.006 C269.776,124.253 268.399,124.449 266.999,124.68 C265.597,124.888 264.149,125.017 262.688,125.195 C261.224,125.328 259.728,125.406 258.22,125.513 C256.704,125.531 255.177,125.611 253.634,125.583 C252.093,125.538 250.542,125.545 248.989,125.407 L246.657,125.242 L244.332,124.977 C242.78,124.83 241.249,124.515 239.717,124.289 C238.203,123.958 236.679,123.707 235.204,123.3 C232.23,122.597 229.378,121.644 226.677,120.614 C223.968,119.596 221.464,118.354 219.158,117.103 C216.845,115.848 214.808,114.442 213.011,113.081 C211.204,111.718 209.744,110.285 208.541,108.987 C207.332,107.676 206.525,106.425 205.914,105.41 C205.757,105.075 205.585,104.747 205.452,104.461 C205.382,104.318 205.32,104.181 205.283,104.068 C205.224,103.906 205.171,103.756 205.122,103.619 C205.07,103.473 205.013,103.401 204.98,103.183 C204.825,102.455 204.743,102.069 204.743,102.069 L199.531,103.293 C199.531,103.293 199.626,103.652 199.802,104.306 L199.825,104.397 C199.853,104.546 199.976,104.852 200.083,105.133" fill="#FFFFFE"/>
  </g>
</svg>
